HIERARCHY
ROOT Hips
{
	OFFSET 0.000000 0.000000 0.000000
	CHANNELS 6 Xposition Yposition Zposition Zrotation Yrotation Xrotation 
	JOINT LHipJoint
	{
		OFFSET 0.000000 0.000000 0.000000
		CHANNELS 3 Zrotation Yrotation Xrotation
		JOINT LeftUpLeg
		{
			OFFSET 1.363060 -1.794630 0.839290
			CHANNELS 3 Zrotation Yrotation Xrotation
			JOINT LeftLeg
			{
				OFFSET 2.448110 -6.726130 0.000000
				CHANNELS 3 Zrotation Yrotation Xrotation
				JOINT LeftFoot
				{
					OFFSET 2.562200 -7.039590 0.000000
					CHANNELS 3 Zrotation Yrotation Xrotation
					JOINT LeftToeBase
					{
						OFFSET 0.157640 -0.433110 2.322550
						CHANNELS 3 Zrotation Yrotation Xrotation
						End Site
						{
							OFFSET 0.000000 0.000000 0.000000
						}
					}
				}
			}
		}
	}
	JOINT RHipJoint
	{
		OFFSET 0.000000 0.000000 0.000000
		CHANNELS 3 Zrotation Yrotation Xrotation
		JOINT RightUpLeg
		{
			OFFSET -1.305520 -1.794630 0.839290
			CHANNELS 3 Zrotation Yrotation Xrotation
			JOINT RightLeg
			{
				OFFSET -2.542530 -6.985550 0.000000
				CHANNELS 3 Zrotation Yrotation Xrotation
				JOINT RightFoot
				{
					OFFSET -2.568260 -7.056230 0.000000
					CHANNELS 3 Zrotation Yrotation Xrotation
					JOINT RightToeBase
					{
						OFFSET -0.164730 -0.452590 2.363150
						CHANNELS 3 Zrotation Yrotation Xrotation
						End Site
						{
							OFFSET 0.000000 0.000000 0.000000
						}
					}
				}
			}
		}
	}
}
MOTION
Frames: 27
Frame Time: 0.008333
4.799694 20.555222 0.601953 21.832778 -79.030146 -2.102723 -10.769291 4.673617 7.870354 -3.102683 -19.397306 -15.944703 1.267429 1.599852 55.927659 3.086640 12.500695 35.350867 7.012699 -0.000000 -63.345101 11.139938 -4.417932 5.030546 5.518231 9.973728 -4.244584 -1.740395 -2.110034 45.007846 -1.503364 -3.592276 23.178161 -1.277000 -0.000000 -84.843700
4.612084 20.720611 0.586439 21.355267 -79.032478 -1.946362 -10.939348 4.606266 7.809434 -3.135816 -20.004542 -17.185062 1.418405 2.007913 62.620102 3.185898 13.415085 34.367125 7.409400 -0.000001 -63.007000 11.297332 -4.368493 5.023559 5.545646 10.744693 -5.404595 -1.972838 -2.417296 52.198300 -1.731021 -5.600065 20.065659 -1.987500 0.000000 -84.175800
4.430065 20.872096 0.568999 21.067535 -79.104294 -1.942479 -11.142265 4.564497 7.715989 -3.127698 -20.515336 -18.417523 1.631647 2.461469 69.180033 3.260883 14.065030 33.593712 7.654200 -0.000000 -62.747000 11.483270 -4.355315 5.009084 5.450676 11.549776 -6.556584 -2.235936 -2.766711 59.318226 -1.927665 -7.302034 17.201709 -2.420999 0.000000 -83.280600
4.252339 21.011056 0.550245 20.870862 -79.248692 -1.994046 -11.380047 4.542857 7.599242 -3.032334 -20.945762 -19.645175 1.918602 2.947656 75.564447 3.308347 14.413031 33.031417 7.737100 0.000000 -62.670200 11.690822 -4.377002 4.996739 5.250704 12.419615 -7.696485 -2.552416 -3.153850 66.329430 -2.078958 -8.641596 14.557490 -2.607800 0.000000 -82.206500
4.077738 21.138642 0.530756 20.683925 -79.464891 -2.017689 -11.653980 4.535518 7.469071 -2.809641 -21.318173 -20.878725 2.288644 3.456014 81.752161 3.323963 14.419189 32.643416 7.637301 0.000000 -62.506400 11.916063 -4.429323 4.996150 4.959429 13.379180 -8.833166 -2.942605 -3.572880 73.224664 -2.176652 -9.594372 12.064260 -2.587100 -0.000000 -80.925900
3.905103 21.255134 0.510869 20.479030 -79.752071 -1.980700 -11.960834 4.535769 7.337142 -2.438849 -21.670491 -22.110860 2.742811 3.974844 87.700228 3.307961 14.085270 32.456281 7.369300 -0.000000 -62.597300 12.158436 -4.505026 5.014363 4.577994 14.447747 -9.971472 -3.423991 -4.016527 79.994201 -2.220482 -10.180257 9.655899 -2.407400 0.000000 -79.561500
3.733764 21.361221 0.490926 20.215396 -80.102156 -1.844717 -12.296740 4.538228 7.213334 -1.901620 -22.041802 -23.331440 3.280345 4.495445 93.372056 3.257958 13.396123 32.457480 6.925300 0.000000 -62.777600 12.416829 -4.596902 5.055747 4.108272 15.636090 -11.106027 -4.010240 -4.477559 86.619471 -2.215674 -10.450984 7.275966 -2.119700 -0.000000 -78.122001
3.562832 21.456732 0.471144 19.874740 -80.500888 -1.591026 -12.654230 4.539088 7.108043 -1.188562 -22.479735 -24.518255 3.893512 5.008865 98.712721 3.172760 12.350130 32.652292 6.304800 0.000000 -63.052500 12.689976 -4.697677 5.121601 3.546383 16.947284 -12.218376 -4.710386 -4.947473 93.061774 -2.172042 -10.481223 4.897793 -1.773800 0.000000 -76.637200
3.391775 21.542707 0.451719 19.428232 -80.927471 -1.195878 -13.023900 4.536037 7.030548 -0.292524 -23.032266 -25.648372 4.569552 5.507001 103.659017 3.050685 10.945315 33.021559 5.497800 0.000001 -63.263099 12.974059 -4.800525 5.210161 2.888285 18.376343 -13.280957 -5.526699 -5.416416 99.262036 -2.101939 -10.353195 2.526850 -1.412200 0.000000 -75.110500
3.220097 21.619367 0.432883 18.837617 -81.355397 -0.626805 -13.394875 4.528322 6.989243 0.791230 -23.743998 -26.704328 5.290140 5.982474 108.146601 2.891505 9.194741 33.527734 4.496399 0.000000 -63.238801 13.262107 -4.899183 5.317799 2.131164 19.911909 -14.264583 -6.451886 -5.872493 105.143207 -2.018777 -10.143951 0.200749 -1.067000 0.000001 -73.534700
3.047385 21.687733 0.414958 18.053160 -81.755571 0.162422 -13.755135 4.515730 6.991127 2.066649 -24.649514 -27.683330 6.030226 6.427928 112.107375 2.698294 7.140137 34.111597 3.306600 -0.000000 -62.836000 13.543646 -4.987816 5.439728 1.275691 21.536332 -15.148205 -7.465880 -6.301977 110.615702 -1.935678 -9.917116 -2.016234 -0.758200 0.000000 -71.922400
2.873426 21.748503 0.398339 17.006382 -82.098255 1.235366 -14.093339 4.498082 7.039992 3.534235 -25.764398 -28.600365 6.760326 6.837372 115.486824 2.478992 4.864088 34.699127 1.960600 0.000000 -61.940900 13.805028 -5.061111 5.570467 0.331684 23.224032 -15.925533 -8.533500 -6.690954 115.585278 -1.863430 -9.716377 -4.050648 -0.494399 0.000000 -70.232100
2.698254 21.802690 0.383402 15.644219 -82.357259 2.638650 -14.398066 4.474447 7.134955 5.181108 -27.078127 -29.485321 7.445484 7.205558 118.241577 2.248109 2.504582 35.224376 0.533200 -0.000000 -60.627300 14.032432 -5.113697 5.703274 -0.684455 24.937936 -16.610321 -9.605313 -7.027590 119.963305 -1.810080 -9.571309 -5.828359 -0.278000 -0.000000 -68.523600
2.522070 21.850448 0.370270 13.974509 -82.513995 4.356536 -14.658239 4.443075 7.269624 6.972178 -28.548167 -30.377789 8.049692 7.528017 120.350711 2.025469 0.246966 35.629722 -0.860899 0.000000 -59.013200 14.215369 -5.140613 5.830526 -1.751022 26.626633 -17.236113 -10.621532 -7.304648 123.674226 -1.779571 -9.498491 -7.299598 -0.106500 -0.000000 -66.842400
2.345107 21.892258 0.358771 12.069401 -82.556498 6.306921 -14.863853 4.401690 7.432197 8.846195 -30.106700 -31.309511 8.537468 7.800875 121.810914 1.834011 -1.693309 35.888244 -2.077800 0.000000 -57.427300 14.348094 -5.137539 5.940745 -2.832788 28.219803 -17.841497 -11.519984 -7.520784 126.665431 -1.772192 -9.508186 -8.457010 0.026300 0.000000 -65.233100
2.167886 21.927953 0.348353 10.089276 -82.484985 8.314786 -15.007101 4.346393 7.607395 10.713508 -31.664931 -32.298854 8.881431 8.020186 122.643108 1.695185 -3.103597 35.983464 -2.969400 0.000000 -56.166300 14.431743 -5.100586 6.020112 -3.889892 29.632321 -18.464946 -12.246021 -7.679896 128.912738 -1.786036 -9.608906 -9.338483 0.129700 0.000000 -63.739200
1.990856 21.957361 0.338043 8.244551 -82.310734 10.155377 -15.082735 4.271210 7.780026 12.465292 -33.128359 -33.343096 9.063028 8.180533 122.875955 1.625486 -3.807793 35.903147 -3.412100 -0.000000 -55.498000 14.472478 -5.026523 6.054246 -4.879578 30.774870 -19.135350 -12.759414 -7.788591 130.417617 -1.818060 -9.806161 -10.019474 0.216300 0.000000 -62.381900
1.814322 21.980144 0.327019 6.694098 -82.045829 11.660249 -15.090902 4.169328 7.938333 14.004539 -34.417607 -34.423521 9.078903 8.277061 122.548876 1.632479 -3.704186 35.620991 -3.336200 0.000000 -55.549300 14.477337 -4.912642 6.028913 -5.748756 31.560649 -19.863794 -13.037968 -7.852775 131.204672 -1.864720 -10.099119 -10.591652 0.300000 0.000000 -61.164600
1.638593 21.996463 0.314269 5.574486 -81.718671 12.684922 -15.033128 4.033012 8.070991 15.231923 -35.461424 -35.497710 8.935707 8.303203 121.698481 1.714517 -2.780910 35.103793 -2.742700 0.000000 -56.408500 14.454591 -4.759020 5.938678 -6.470877 31.944703 -20.653216 -13.079528 -7.878177 131.314562 -1.918785 -10.458472 -11.142725 0.393900 0.000000 -60.050800
1.463634 22.006601 0.299515 4.868920 -81.341635 13.249181 -14.915750 3.858899 8.173559 16.109647 -36.226190 -36.533822 8.654288 8.256345 120.360222 1.859143 -1.141122 34.296441 -1.719400 0.000000 -57.833300 14.407917 -4.566577 5.783114 -7.014554 31.903269 -21.496563 -12.894877 -7.866384 130.793589 -1.971296 -10.837738 -11.728480 0.506000 -0.000001 -59.013600
1.289583 22.010198 0.282862 4.492635 -80.927636 13.441693 -14.747142 3.648278 8.242004 16.635424 -36.698649 -37.504070 8.263438 8.137685 118.569612 2.044613 1.001449 33.155521 -0.434400 -0.000000 -59.272300 14.337814 -4.338395 5.569816 -7.368235 31.457039 -22.381695 -12.506377 -7.817283 129.691341 -2.010479 -11.166843 -12.365618 0.635500 0.000001 -58.033300
1.116368 22.007705 0.264549 4.351369 -80.495198 13.365169 -14.536004 3.406693 8.271821 16.823636 -36.875888 -38.380184 7.791369 7.950727 116.358795 2.245137 3.371475 31.689689 0.908100 -0.000000 -60.244799 14.243230 -4.081051 5.315284 -7.549562 30.670892 -23.297383 -11.944670 -7.730748 128.056218 -2.023775 -11.363930 -13.030370 0.771300 -0.000000 -57.097300
0.943978 21.998772 0.245063 4.341356 -80.063039 13.131717 -14.291984 3.142608 8.258587 16.705821 -36.766571 -39.138560 7.262038 7.701853 113.757093 2.435372 5.681814 29.981603 2.116400 -0.000000 -60.329500 14.121984 -3.802330 5.038848 -7.585501 29.633778 -24.226346 -11.247083 -7.606716 125.942220 -2.002558 -11.363006 -13.665199 0.892700 -0.000000 -56.219600
0.772443 21.982891 0.224797 4.380491 -79.646380 12.832479 -14.025107 2.865428 8.201149 16.327214 -36.390091 -39.767955 6.696468 7.399349 110.799662 2.595060 7.695073 28.162405 3.060800 -0.000000 -59.346000 13.972714 -3.509655 4.760960 -7.510399 28.440282 -25.153906 -10.452888 -7.445399 123.401334 -1.944654 -11.130921 -14.185719 0.974900 -0.000000 -55.473901
0.601730 21.959408 0.204046 4.417334 -79.262483 12.527570 -13.743834 2.582630 8.099611 15.729169 -35.770427 -40.257257 6.107137 7.050812 107.514744 2.714558 9.269939 26.441620 3.704500 -0.000000 -57.577100 13.795661 -3.209333 4.500202 -7.358830 27.185992 -26.062976 -9.602249 -7.248162 120.487446 -1.856325 -10.683376 -14.502047 0.998800 -0.000000 -54.992400
0.431832 21.927194 0.182972 4.426553 -78.931251 12.248206 -13.455920 2.299651 7.953650 14.946246 -34.935430 -40.593354 5.508087 6.663645 103.936859 2.792542 10.359788 24.997190 4.080200 -0.000000 -55.420800 13.592986 -2.907081 4.270522 -7.161526 25.960829 -26.933433 -8.733272 -7.019020 117.257855 -1.749224 -10.072792 -14.561581 0.961400 -0.000000 -54.788600
0.262760 21.885434 0.161720 4.396298 -78.663380 12.013782 -13.167658 2.020558 7.768598 14.022997 -33.922346 -40.780517 4.913320 6.245340 100.097220 2.834673 10.991236 23.969825 4.257100 -0.000000 -53.389000 13.368136 -2.606453 4.081925 -6.946303 24.831204 -27.755992 -7.877552 -6.762195 113.762070 -1.638884 -9.382917 -14.321319 0.871100 0.000001 -54.981400
